<?xml version="1.0" encoding="UTF-8" standalone="no"?>
<svg
   xmlns:dc="http://purl.org/dc/elements/1.1/"
   xmlns:cc="http://creativecommons.org/ns#"
   xmlns:rdf="http://www.w3.org/1999/02/22-rdf-syntax-ns#"
   xmlns:svg="http://www.w3.org/2000/svg"
   xmlns="http://www.w3.org/2000/svg"
   xml:space="preserve"
   style="enable-background:new 0 0 841.9 595.3;"
   viewBox="0 0 841.9 595.3"
   y="0px"
   x="0px"
   id="Capa_1"
   version="1.1"><metadata
     id="metadata68"><rdf:RDF><cc:Work
         rdf:about=""><dc:format>image/svg+xml</dc:format><dc:type
           rdf:resource="http://purl.org/dc/dcmitype/StillImage" /><dc:title></dc:title></cc:Work></rdf:RDF></metadata><defs
     id="defs66" /><style
     id="style3"
     type="text/css">
	.st0{fill:none;stroke:#1D1D1B;stroke-width:14.0593;stroke-miterlimit:10;}
	.st1{fill:none;stroke:#1D1D1B;stroke-width:5;stroke-miterlimit:10;}
</style><g
     transform="matrix(0.43174043,2.3820922e-4,-2.6731453e-4,0.38473236,71.319844,26.068816)"
     style="fill:none;stroke:#e8d1b8;stroke-opacity:1"
     id="Capa_2_1_"><path
       style="fill:none;stroke:#e8d1b8;stroke-width:14.05930042;stroke-miterlimit:10;stroke-opacity:1"
       id="path6"
       d="m 154.1,42.3 57.6,0 212.7,0 85.3,279.7 c 83.4,1.5 82.7,0.7 101.2,0.7 15.9,-2.2 16.9,-47.8 -7.9,-48.2 -29.1,-0.4 -61.9,0 -61.9,0"
       class="st0" /><path
       style="fill:none;stroke:#e8d1b8;stroke-width:14.05930042;stroke-miterlimit:10;stroke-opacity:1"
       id="path8"
       d="m 100.2,64.4 c -0.2,21.1 -2.9,38.9 20,39.6 31.1,0 86.7,0 86.7,0"
       class="st0" /><ellipse
       style="fill:none;stroke:#e8d1b8;stroke-width:5;stroke-miterlimit:10;stroke-opacity:1"
       id="ellipse10"
       ry="6"
       rx="6.4000001"
       cy="104.9"
       cx="252.89999"
       class="st1" /><line
       style="fill:none;stroke:#e8d1b8;stroke-width:14.05930042;stroke-miterlimit:10;stroke-opacity:1"
       id="line12"
       y2="204.8"
       x2="804.70001"
       y1="204.8"
       x1="472.70001"
       class="st0" /><line
       style="fill:none;stroke:#e8d1b8;stroke-width:14.05930042;stroke-miterlimit:10;stroke-opacity:1"
       id="line14"
       y2="35"
       x2="558.70001"
       y1="204.8"
       x1="488"
       class="st0" /><line
       style="fill:none;stroke:#e8d1b8;stroke-width:14.05930042;stroke-miterlimit:10;stroke-opacity:1"
       id="line16"
       y2="35"
       x2="623.79999"
       y1="204.8"
       x1="547.5"
       class="st0" /><line
       style="fill:none;stroke:#e8d1b8;stroke-width:14.05930042;stroke-miterlimit:10;stroke-opacity:1"
       id="line18"
       y2="35"
       x2="678.09998"
       y1="204.8"
       x1="604.70001"
       class="st0" /><line
       style="fill:none;stroke:#e8d1b8;stroke-width:14.05930042;stroke-miterlimit:10;stroke-opacity:1"
       id="line20"
       y2="35"
       x2="734.40002"
       y1="204.8"
       x1="663.20001"
       class="st0" /><path
       style="fill:none;stroke:#e8d1b8;stroke-width:14.05930042;stroke-miterlimit:10;stroke-opacity:1"
       id="path22"
       d="m 299,104 63.8,0 29.4,98.2 52.9,178.9 c 18.5,0.4 113.1,1.9 186.6,1.9 9.3,0 10.6,-4.5 17.9,-9.7 45.3,-32.9 65.2,-144.2 -23.5,-168.4"
       class="st0" /><line
       style="fill:none;stroke:#e8d1b8;stroke-width:14.05930042;stroke-miterlimit:10;stroke-opacity:1"
       id="line24"
       y2="204.8"
       x2="393"
       y1="204.8"
       x1="34.099998"
       class="st0" /><path
       style="fill:none;stroke:#e8d1b8;stroke-width:14.05930042;stroke-miterlimit:10;stroke-opacity:1"
       id="path26"
       d="M 392.3,202.9"
       class="st0" /><path
       style="fill:none;stroke:#e8d1b8;stroke-width:14.05930042;stroke-miterlimit:10;stroke-opacity:1"
       id="path28"
       d="m 213.5,204.8 c 0,0 -46.6,7.4 -63.3,58.8 0,1.1 -3.5,19.9 -4.3,28.5 1.1,22.3 4.3,30.8 4.3,30.8 0,0 4,45.5 58.9,62.3 38.3,0.9 154.5,-1.1 154.5,-1.1 l -34.1,-119.5 -105.2,0 c -16.4,0.3 -15.9,50.3 0,50.3 38.3,0 68.3,0.7 68.3,0.7"
       class="st0" /><line
       style="fill:none;stroke:#e8d1b8;stroke-width:14.05930042;stroke-miterlimit:10;stroke-opacity:1"
       id="line30"
       y2="267.5"
       x2="149.60001"
       y1="267.5"
       x1="34.099998"
       class="st0" /><line
       style="fill:none;stroke:#e8d1b8;stroke-width:14.05930042;stroke-miterlimit:10;stroke-opacity:1"
       id="line32"
       y2="330.29999"
       x2="150.2"
       y1="330.29999"
       x1="34.099998"
       class="st0" /><path
       style="fill:none;stroke:#e8d1b8;stroke-width:14.05930042;stroke-miterlimit:10;stroke-opacity:1"
       id="path34"
       d="M 146.2,326.9"
       class="st0" /><line
       style="fill:none;stroke:#e8d1b8;stroke-width:14.05930042;stroke-miterlimit:10;stroke-opacity:1"
       id="line36"
       y2="385.89999"
       x2="172.3"
       y1="560.40002"
       x1="96.400002"
       class="st0" /><polyline
       style="fill:none;stroke:#e8d1b8;stroke-width:14.05930042;stroke-miterlimit:10;stroke-opacity:1"
       id="polyline38"
       points="155,560.4 230.2,385.9 34.1,385.9  "
       class="st0" /><line
       style="fill:none;stroke:#e8d1b8;stroke-width:14.05930042;stroke-miterlimit:10;stroke-opacity:1"
       id="line40"
       y2="385.89999"
       x2="286.5"
       y1="560.40002"
       x1="214.5"
       class="st0" /><line
       style="fill:none;stroke:#e8d1b8;stroke-width:14.05930042;stroke-miterlimit:10;stroke-opacity:1"
       id="line42"
       y2="385.89999"
       x2="349"
       y1="560.40002"
       x1="275.39999"
       class="st0" /><polyline
       style="fill:none;stroke:#e8d1b8;stroke-width:14.05930042;stroke-miterlimit:10;stroke-opacity:1"
       id="polyline44"
       points="363.5,384.1 418.5,553.3 630.8,553.3 682.3,553.3  "
       class="st0" /><path
       style="fill:none;stroke:#e8d1b8;stroke-width:14.05930042;stroke-miterlimit:10;stroke-opacity:1"
       id="path46"
       d="m 630.8,549.1 c 0,-30.3 0,-56.8 0,-87 0,0 -9.6,-36.2 -45,-35.9 -3.6,0 -12.9,-0.7 -23.2,4.5 -14.6,7.8 -25.8,20.5 -26.5,32.9 -2,41.8 0,70.6 0,85.2"
       class="st0" /><path
       style="fill:none;stroke:#e8d1b8;stroke-width:14.05930042;stroke-miterlimit:10;stroke-opacity:1"
       id="path48"
       d="m 736.5,523.7 c 0,-14.1 6.1,-42 -19.3,-41.9 -26.5,0.1 -87.7,0 -87.7,0"
       class="st0" /><polyline
       style="fill:none;stroke:#e8d1b8;stroke-width:14.05930042;stroke-miterlimit:10;stroke-opacity:1"
       id="polyline50"
       points="535.5,481.8 475.4,481.8 441.3,367.9  "
       class="st0" /><path
       style="fill:none;stroke:#e8d1b8;stroke-width:14.05930042;stroke-miterlimit:10;stroke-opacity:1"
       id="path52"
       d="M 474.7,204.8"
       class="st0" /><line
       style="fill:none;stroke:#e8d1b8;stroke-width:14.05930042;stroke-miterlimit:10;stroke-opacity:1"
       id="line54"
       y2="263.39999"
       x2="804.70001"
       y1="263.39999"
       x1="687.09998"
       class="st0" /><line
       style="fill:none;stroke:#e8d1b8;stroke-width:14.05930042;stroke-miterlimit:10;stroke-opacity:1"
       id="line56"
       y2="322.89999"
       x2="804.70001"
       y1="322.89999"
       x1="683.70001"
       class="st0" /><path
       style="fill:none;stroke:#e8d1b8;stroke-width:14.05930042;stroke-miterlimit:10;stroke-opacity:1"
       id="path58"
       d="m 557.1,383 247.6,0"
       class="st0" /><path
       style="fill:none;stroke:#e8d1b8;stroke-width:14.05930042;stroke-miterlimit:10;stroke-opacity:1"
       id="path60"
       d="m 207,45.1 c 0,30.3 0,56.8 0,87 0,0 9.6,36.2 45,35.9 3.6,0 12.9,0.7 23.2,-4.5 14.6,-7.8 25.8,-20.5 26.5,-32.9 2,-41.8 0,-70.6 0,-85.2"
       class="st0" /><ellipse
       style="fill:none;stroke:#e8d1b8;stroke-width:5;stroke-miterlimit:10;stroke-opacity:1"
       id="ellipse62"
       ry="6"
       rx="6.4000001"
       cy="479.79999"
       cx="585.5"
       class="st1" /></g><flowRoot
     transform="matrix(2.0279939,0,0,2.9669917,-204.44716,-775.09033)"
     style="font-style:normal;font-weight:normal;font-size:40px;line-height:125%;font-family:sans-serif;letter-spacing:0px;word-spacing:0px;fill:#e8d1b8;fill-opacity:1;stroke:none;stroke-width:1px;stroke-linecap:butt;stroke-linejoin:miter;stroke-opacity:1;"
     id="flowRoot4241"
     xml:space="preserve"><flowRegion
       id="flowRegion4243"><rect
         style="fill:#e8d1b8;fill-opacity:1;"
         y="237.45538"
         x="319.06125"
         height="105.11502"
         width="153.95633"
         id="rect4245" /></flowRegion><flowPara
       style="font-style:normal;font-variant:normal;font-weight:300;font-stretch:normal;font-size:27.5px;font-family:'Arista 2.0 Light';-inkscape-font-specification:'Arista 2.0 Light, Light';text-align:center;text-anchor:middle;fill:#e8d1b8;fill-opacity:1;"
       id="flowPara4247" /><flowPara
       style="font-style:normal;font-variant:normal;font-weight:300;font-stretch:normal;font-size:50px;font-family:'Arista 2.0 Light';-inkscape-font-specification:'Arista 2.0 Light, Light';fill:#e8d1b8;fill-opacity:1;"
       id="flowPara4249">CÓNDOR</flowPara></flowRoot><text
     transform="scale(1.1499658,0.86959108)"
     id="text4281"
     y="249.35941"
     x="446.58554"
     style="font-style:normal;font-weight:normal;font-size:91.8846817px;line-height:125%;font-family:sans-serif;letter-spacing:0px;word-spacing:0px;fill:#e8d1b8;fill-opacity:1;stroke:none;stroke-width:1px;stroke-linecap:butt;stroke-linejoin:miter;stroke-opacity:1;"
     xml:space="preserve"><tspan
       style="font-style:normal;font-variant:normal;font-weight:300;font-stretch:normal;font-size:63.17071152px;font-family:'Arista 2.0 Light';-inkscape-font-specification:'Arista 2.0 Light, Light';fill:#e8d1b8;fill-opacity:1;"
       y="249.35941"
       x="446.58554"
       id="tspan4283">DBMS</tspan></text>
</svg>